#!OML:ASF H:\GeneralSubjects\Female5\Project 1\Capture day 1\Session 1\Female5.ASF
:FULLY-SPECIFIED
:DEGREES
480
root 9.12322 15.3289 1.88967 -169.392 -40.9525 175.87
lowerback 12.9586 9.8496 6.09248
upperback -9.38855 13.2776 -8.06837
thorax -14.4248 4.88118 -15.7616
lowerneck -10.0432 0.264929 -1.57062
upperneck 32.9961 1.16877 -6.08967
head 12.6564 -1.0535 -2.05
rclavicle -4.96962e-015 -3.65764e-014
rhumerus -1.39547 2.29309 -60.6138
rradius 102.751
rwrist -8.72413
rhand -44.5441 -5.01662
rfingers 7.12502
rthumb -17.3449 -34.2627
lclavicle -4.96962e-015 -3.65764e-014
lhumerus -47.2018 31.4801 14.3461
lradius 109.962
lwrist 2.1866
lhand -52.3928 59.534
lfingers 7.12502
lthumb -24.884 -632.066
rfemur -26.785 21.3503 28.0373
rtibia 39.8882
rfoot -20.311 7.65422
rtoes -11.0882
lfemur -35.8246 -28.1746 11.2645
ltibia 42.1029
lfoot -13.6625 35.0264
ltoes -27.4712
481
root 9.1932 15.3151 1.8939 -170.392 -42.6353 176.923
lowerback 13.2157 9.2234 6.66465
upperback -9.39033 12.6434 -7.6063
thorax -14.768 4.51013 -15.5152
lowerneck -9.3054 0.144266 -1.45626
upperneck 32.8571 0.844349 -5.92238
head 12.427 -1.15924 -2.03546
rclavicle 8.20981e-014 2.06736e-014
rhumerus -3.7436 1.90607 -60.4395
rradius 103.633
rwrist -9.21715
rhand -43.878 -4.87506
rfingers 7.12502
rthumb -16.7037 -34.1764
lclavicle 8.20981e-014 2.06736e-014
lhumerus -42.9825 31.5235 17.1183
lradius 110.305
lwrist 1.37955
lhand -52.4233 57.9151
lfingers 7.12502
lthumb -24.9132 -633.689
rfemur -26.11 19.5623 29.2175
rtibia 38.9948
rfoot -20.1943 7.64383
rtoes -11.4232
lfemur -36.1168 -26.7476 11.7753
ltibia 41.5716
lfoot -16.9414 34.5445
ltoes -26.2594
482
root 9.26614 15.3055 1.88536 -171.644 -44.7961 178.093
lowerback 13.2281 8.31091 6.84727
upperback -9.13472 11.5738 -6.80726
thorax -14.9197 4.0454 -14.4734
lowerneck -9.25818 0.243588 -1.38438
upperneck 32.8475 0.975093 -5.98539
head 12.4176 -1.10502 -2.05587
rclavicle -5.14852e-014 -6.04305e-014
rhumerus -5.9782 1.82417 -59.8194
rradius 104.156
rwrist -9.13696
rhand -44.1749 -5.14112
rfingers 7.12502
rthumb -16.9896 -34.4181
lclavicle -5.14852e-014 -6.04305e-014
lhumerus -39.156 31.8841 20.2556
lradius 110.589
lwrist 0.664641
lhand -52.2623 55.9332
lfingers 7.12502
lthumb -24.7589 -635.649
rfemur -25.1477 17.4984 30.5213
rtibia 38.0657
rfoot -20.181 7.71304
rtoes -10.9364
lfemur -36.0853 -24.7106 12.0264
ltibia 40.5714
lfoot -20.4009 33.7556
ltoes -24.7874
483
root 9.34108 15.3011 1.8605 -173.295 -47.4304 179.454
lowerback 13.2198 7.18667 6.76275
upperback -8.71774 10.187 -5.79659
thorax -15.001 3.49679 -12.9427
lowerneck -9.70858 0.492225 -1.07875
upperneck 32.9787 1.38575 -6.29233
head 12.5861 -0.935401 -2.18607
rclavicle 3.49861e-014 -7.95139e-015
rhumerus -8.36784 1.7176 -58.812
rradius 104.84
rwrist -9.41228
rhand -44.0957 -5.79885
rfingers 7.12502
rthumb -16.9133 -35.0824
lclavicle 3.49861e-014 -7.95139e-015
lhumerus -35.4065 32.3136 23.8337
lradius 110.821
lwrist 0.0324271
lhand -52.3196 55.2756
lfingers 7.12502
lthumb -24.8138 -636.314
rfemur -23.7969 15.1086 31.9387
rtibia 36.9929
rfoot -20.2846 7.79809
rtoes -11.2451
lfemur -35.7626 -22.2237 12.1117
ltibia 39.0419
lfoot -24.0858 32.1452
ltoes -22.9935
484
root 9.42296 15.2988 1.8195 -175.578 -50.4199 181.165
lowerback 13.5731 6.00809 6.69946
upperback -8.31007 8.747 -4.82319
thorax -15.2652 2.89809 -11.5155
lowerneck -9.92159 0.665849 -0.463024
upperneck 33.0521 1.58756 -6.54735
head 12.6738 -0.807764 -2.37298
rclavicle 1.15295e-013 4.45278e-014
rhumerus -11.2842 1.07082 -57.6316
rradius 105.878
rwrist -9.91644
rhand -43.4434 -5.94335
rfingers 7.12502
rthumb -16.2853 -35.2795
lclavicle 1.15295e-013 4.45278e-014
lhumerus -30.9344 32.2978 27.9806
lradius 110.696
lwrist -0.815189
lhand -52.676 55.547
lfingers 7.12502
lthumb -25.1554 -636.09
rfemur -21.9111 12.5707 33.4995
rtibia 35.4507
rfoot -20.3097 7.76942
rtoes -11.5486
lfemur -35.0623 -19.6423 12.134
ltibia 36.9352
lfoot -28.213 29.8695
ltoes -19.8404
